<svg width="165" height="39" viewBox="0 0 165 39" fill="none" xmlns="http://www.w3.org/2000/svg">
<g id="Group">
<path id="Vector" d="M71.1038 13.062V20.514C71.1038 22.9523 70.0491 24.555 68.3506 24.555C66.7754 24.555 66.3508 23.1441 66.3508 21.377V13.062H61.5566V21.377C61.5566 24.0208 62.1593 28.4453 66.3919 28.4453C68.4328 28.4453 70.1313 27.418 71.1038 25.8152V28.0755H75.9116V13.062H71.1038Z" fill="#085740"/>
<path id="Vector_2" d="M88.3077 23.0892C87.8557 24.007 86.9654 24.5002 85.6778 24.5002C83.7876 24.5002 82.7466 23.4591 82.4452 21.6235H92.8142C94.5538 16.8153 91.1568 12.5825 85.5409 12.5825C80.6919 12.5825 77.4045 15.7606 77.4045 20.5687C77.4045 25.3769 80.6235 28.5549 85.5682 28.5549C89.6912 28.5549 92.5951 26.3905 93.4991 23.0892H88.3077ZM85.5409 16.4729C87.3489 16.4729 88.253 17.4729 88.0886 18.9112H82.5C82.8972 17.2948 83.9519 16.4729 85.5409 16.4729Z" fill="#085740"/>
<path id="Vector_3" d="M99.9643 7.06201H95.1565V28.0617H99.9643V7.06201Z" fill="#085740"/>
<path id="Vector_4" d="M119.607 12.6919C117.319 12.6919 115.429 13.9658 114.511 16.0343C113.908 13.9932 112.374 12.6919 110.1 12.6919C107.635 12.6919 106.046 14.1439 105.265 15.7877V13.0618H102.991V28.0752H105.265V20.8288C105.265 17.2398 107.005 14.8973 109.498 14.8973C111.511 14.8973 112.498 16.4453 112.498 18.8014V28.0752H114.771V20.8288C114.771 17.2398 116.511 14.8973 119.004 14.8973C121.017 14.8973 122.004 16.4453 122.004 18.8014V28.0752H124.277V18.1987C124.277 14.8973 122.702 12.7056 119.607 12.7056" fill="#085740"/>
<path id="Vector_5" d="M133.071 12.6919C129.291 12.6919 126.62 15.0617 127.428 18.2535H129.866C129.318 16.0069 130.784 14.8152 133.044 14.8152C135.948 14.8152 136.879 16.8562 136.879 19.5137V19.6507C135.701 19.3083 134.359 19.1302 133.071 19.1302C128.948 19.1302 126.318 20.9932 126.318 23.9794C126.318 26.6643 128.455 28.4314 131.482 28.4314C133.948 28.4314 135.838 27.2533 136.92 25.3356V28.0616H139.18V19.5274C139.18 15.4864 137.235 12.6782 133.085 12.6782M131.743 26.363C129.88 26.363 128.77 25.5273 128.77 24.0616C128.77 22.2534 130.4 21.0891 133.277 21.0891C134.509 21.0891 135.824 21.2945 136.907 21.637C136.646 24.5137 134.468 26.3766 131.743 26.3766" fill="#085740"/>
<path id="Vector_6" d="M149.673 15.1165V13.048H145.44V9.17139H143.153V13.048H140.454V15.1165H143.153V23.8013C143.153 25.0068 143.18 28.4314 147.152 28.4314C147.988 28.4314 148.768 28.2396 149.371 28.0341V25.9657C148.823 26.1711 148.234 26.3218 147.536 26.3218C145.673 26.3218 145.44 25.1848 145.44 23.7739V15.1302H149.673V15.1165Z" fill="#085740"/>
<path id="Vector_7" d="M162.507 23.541C161.877 25.267 160.261 26.3218 158.179 26.3218C155.425 26.3218 153.645 24.5136 153.357 21.4315H164.397C165.657 16.5275 163.384 12.6919 158.343 12.6919C153.768 12.6919 150.892 15.8151 150.892 20.5685C150.892 25.3218 153.754 28.4451 158.22 28.4451C161.63 28.4451 164.123 26.5821 164.986 23.5547H162.493L162.507 23.541ZM158.261 14.7467C161.165 14.7467 162.699 16.5549 162.397 19.363H153.398C153.768 16.4453 155.467 14.7467 158.261 14.7467Z" fill="#085740"/>
<path id="Vector_8" d="M54.2559 11.966C54.2559 10.9249 54.4887 10.3222 55.1462 10.3222C55.7352 10.3222 56.0502 10.788 55.7626 11.6099H59.9266C60.4608 8.59621 58.8993 6.56885 55.201 6.56885C51.5027 6.56885 49.4344 8.58252 49.4344 11.966V13.0482H46.2839V17.0892H49.4344V28.048H54.2422V17.0892H59.8308V13.0482H54.2422V11.966H54.2559Z" fill="#085740"/>
<path id="Vector_9" d="M9.45127 14.7331C10.5882 10.2263 14.6015 7.08938 19.2313 7.08938H32.0384C32.2713 7.07569 32.5042 7.08938 32.7233 7.07569H32.9288C33.0521 7.06199 33.1753 7.04829 33.2986 7.02089C33.4904 7.00719 33.6547 6.9798 33.8191 6.9524C35.8189 6.63734 36.5586 5.85652 36.8326 5.25379C37.0791 4.71956 37.0928 3.4593 36.0792 2.43192C35.3943 1.82919 34.5314 1.37714 33.4493 1.15797C33.4767 1.14427 26.5594 0.0209961 19.4641 0.0209961C12.3688 0.0209961 5.4516 1.14427 5.4516 1.14427C3.04084 1.52782 1.54782 3.08944 1.1095 5.48667C1.1095 5.48667 0 11.8564 0 19.5002C0 27.1439 1.1095 33.5136 1.1095 33.5136C1.43824 35.6506 2.7395 37.0341 4.76673 37.6643C5.91732 38.0067 7.31446 37.5821 7.83497 37.1163C8.71161 36.3492 9.12253 34.7054 9.12253 31.952V29.637C9.12253 27.4726 9.62934 25.459 10.6293 23.6508C9.64303 21.87 9.12253 19.8426 9.12253 17.7605V17.0755C9.12253 16.3084 9.23211 15.5413 9.45127 14.7057" fill="#0AD182"/>
<g id="Group 93">
<path id="Vector_10" d="M9.45127 14.7331C10.5882 10.2263 14.6015 7.08938 19.2313 7.08938H32.0384C32.2713 7.07569 32.5042 7.08938 32.7233 7.07569H32.9288C33.0521 7.06199 33.1753 7.04829 33.2986 7.02089C33.4904 7.00719 33.6547 6.9798 33.8191 6.9524C35.8189 6.63734 36.5586 5.85652 36.8326 5.25379C37.0791 4.71956 37.0928 3.4593 36.0792 2.43192C35.3943 1.82919 34.5314 1.37714 33.4493 1.15797C33.4767 1.14427 26.5594 0.0209961 19.4641 0.0209961C12.3688 0.0209961 5.4516 1.14427 5.4516 1.14427C3.04084 1.52782 1.54782 3.08944 1.1095 5.48667C1.1095 5.48667 0 11.8564 0 19.5002C0 27.1439 1.1095 33.5136 1.1095 33.5136C1.43824 35.6506 2.7395 37.0341 4.76673 37.6643C5.91732 38.0067 7.31446 37.5821 7.83497 37.1163C8.71161 36.3492 9.12253 34.7054 9.12253 31.952V29.637C9.12253 27.4726 9.62934 25.459 10.6293 23.6508C9.64303 21.87 9.12253 19.8426 9.12253 17.7605V17.0755C9.12253 16.3084 9.23211 15.5413 9.45127 14.7057" fill="#0AD182"/>
</g>
<path id="Vector_11" d="M24.9978 23.6233C24.9978 22.7877 23.3952 22.2397 21.8884 22.2397C21.8337 22.2397 21.7378 22.2397 21.6419 22.2397C21.5734 22.2397 21.5049 22.2397 21.4638 22.2397C19.779 22.2397 18.1764 22.7603 16.9163 23.7192C18.1901 24.6918 19.7927 25.2123 21.4638 25.2123C23.4911 25.1575 24.9841 24.3356 24.9841 23.6507" fill="#0AD182"/>
<path id="Vector_12" d="M38.4354 10.4868C37.682 11.6649 35.2713 11.9662 31.888 11.9799H19.4233C18.0398 11.9799 16.7386 12.5416 15.7386 13.4868C15.3003 13.884 14.9442 14.3772 14.6428 14.9114C14.2456 15.7059 14.0402 16.5278 14.0402 17.3634V18.4182C14.0949 18.8155 14.1497 19.2127 14.2456 19.5963C16.3276 18.1305 18.7932 17.3497 21.4231 17.3497H21.7382C21.9573 17.3634 22.1902 17.3634 22.3956 17.3908C26.9569 17.5963 29.8745 19.9935 29.8745 23.6236C29.8745 27.692 26.2446 29.7194 22.3956 30.0208C22.108 30.0482 21.8066 30.0619 21.5053 30.0619H21.2039C18.6699 30.0482 16.2729 29.24 14.2456 27.7468C14.1086 28.2948 14.0402 28.8975 14.0402 29.5139V32.0207C14.0265 35.9385 13.6292 37.9385 12.6704 38.7056C13.0676 38.7467 13.4512 38.7604 13.8895 38.7878C15.6017 38.911 17.4782 38.9795 19.4644 38.9795C27.2308 38.9795 33.4906 37.87 33.4906 37.87C35.9014 37.4042 37.3122 35.9111 37.819 33.5276C37.819 33.5276 38.9422 26.4729 38.9422 19.5141C38.9422 16.2812 38.6956 13.0347 38.4354 10.4868Z" fill="#0AD182"/>
</g>
</svg>
